<mxfile host="app.diagrams.net" modified="2023-10-08T16:18:26.774Z" agent="Mozilla/5.0 (Macintosh; Intel Mac OS X 10_15_7) AppleWebKit/537.36 (KHTML, like Gecko) Chrome/117.0.0.0 Safari/537.36" version="22.0.4" etag="Ma7CMAEYIYJKOdfB1bhf" type="github">
  <diagram name="Page-1" id="Q4X79CjuwHTONTyBobL5">
    <mxGraphModel>
      <root>
        <mxCell id="0" />
        <mxCell id="1" parent="0" />
      </root>
    </mxGraphModel>
  </diagram>
</mxfile>
